<?xml version="1.0" standalone="no"?>
<!DOCTYPE svg PUBLIC "-//W3C//DTD SVG 20010904//EN"
 "http://www.w3.org/TR/2001/REC-SVG-20010904/DTD/svg10.dtd">
<svg version="1.0" xmlns="http://www.w3.org/2000/svg"
 width="631.000000pt" height="631.000000pt" viewBox="0 0 631.000000 631.000000"
 preserveAspectRatio="xMidYMid meet">
<metadata>
Created by potrace 1.14, written by Peter Selinger 2001-2017
</metadata>
<g transform="translate(0.000000,631.000000) scale(0.100000,-0.100000)"
fill="#000000" stroke="none">
<path d="M1300 4368 c-19 -4 -73 -10 -120 -13 -136 -7 -177 -15 -253 -50 -47
-22 -96 -36 -142 -40 -38 -5 -83 -10 -100 -12 -38 -5 -235 -4 -263 2 -27 5
-45 -17 -83 -100 -54 -119 -33 -236 54 -306 44 -36 248 -129 282 -129 12 0 25
-4 30 -9 10 -8 71 -25 131 -35 17 -3 62 -15 100 -27 38 -12 94 -25 124 -29 72
-11 214 -54 230 -70 3 -3 27 -16 53 -30 26 -14 74 -50 106 -80 31 -30 70 -61
87 -69 91 -43 119 -61 119 -78 0 -12 -9 -18 -30 -19 -16 -1 -51 -5 -76 -8 -98
-11 -148 -10 -165 5 -21 17 -17 17 -39 -1 -12 -10 -42 -15 -89 -16 -66 -1
-182 -11 -216 -20 -8 -2 -37 -8 -64 -14 -27 -5 -55 -15 -62 -21 -8 -6 -14 -8
-14 -4 0 4 -7 2 -15 -5 -12 -10 -13 -16 -3 -28 23 -28 100 -71 166 -93 40 -13
66 -28 69 -39 6 -23 89 -64 133 -65 19 -1 45 -5 56 -9 12 -3 43 -9 68 -11 66
-7 68 -8 101 -31 35 -24 122 -64 140 -64 7 0 18 -6 24 -14 9 -11 8 -15 -5 -20
-8 -3 -22 -6 -29 -6 -19 0 -86 -46 -78 -53 3 -4 -6 -12 -21 -18 -29 -14 -83
-111 -92 -169 -5 -33 -2 -39 57 -97 34 -34 85 -74 113 -89 28 -15 53 -31 56
-34 4 -6 104 -59 112 -61 2 0 21 -4 43 -10 48 -12 190 -23 302 -24 46 0 83 -3
83 -7 0 -5 -5 -8 -11 -8 -12 0 -1 -43 12 -48 5 -2 35 -23 67 -46 57 -42 102
-65 252 -124 91 -36 141 -44 378 -57 67 -3 132 -8 145 -10 12 -2 52 -7 90 -10
82 -6 143 -13 177 -20 14 -3 43 -8 65 -11 22 -3 57 -12 78 -20 62 -24 137 -26
180 -6 42 19 53 44 38 85 -6 15 -7 27 -3 27 4 0 8 29 10 65 2 45 -1 65 -9 65
-8 0 -8 4 -2 13 6 7 9 137 7 347 -2 184 -5 389 -5 455 -1 66 1 154 4 195 4 41
7 83 7 94 0 16 5 18 43 12 75 -12 91 -12 147 1 83 20 137 24 355 28 110 3 243
7 295 9 52 3 149 7 215 10 66 3 172 8 235 12 202 11 261 13 474 19 115 3 212
7 216 10 3 2 50 5 103 6 89 1 97 3 104 23 4 11 6 27 5 34 -2 6 9 17 23 22 24
9 65 81 65 114 0 35 -156 63 -186 34 -9 -10 -37 3 -55 25 -13 15 -20 17 -36 9
-12 -7 -24 -7 -29 -2 -20 19 -291 30 -424 16 -142 -15 -165 -14 -220 4 -30 10
-84 21 -120 24 -150 14 -174 18 -201 32 -16 8 -55 17 -86 20 -32 4 -91 17
-130 30 -76 25 -143 35 -253 39 -105 3 -233 16 -265 26 -38 11 -92 13 -125 5
-40 -11 -140 -15 -140 -6 0 18 -159 169 -177 168 -10 0 -29 4 -43 9 -14 6 -28
11 -32 12 -4 1 -28 10 -53 21 -25 11 -45 17 -45 13 0 -3 -7 1 -16 8 -24 20
-87 48 -96 43 -4 -3 -54 11 -110 30 -57 20 -129 38 -162 40 -32 3 -64 10 -72
16 -7 7 -39 18 -71 26 -32 8 -65 16 -73 19 -51 15 -156 38 -240 51 -19 3 -89
19 -155 36 -66 17 -131 32 -145 35 -14 3 -32 7 -40 10 -27 10 -51 12 -275 17
-121 4 -238 8 -260 11 -35 4 -145 13 -240 19 -16 1 -46 -2 -65 -6z"/>
</g>
</svg>
